<?xml version="1.0" encoding="UTF-8"?>
<svg width="2608px" height="834px" viewBox="0 0 2608 834" version="1.1" xmlns="http://www.w3.org/2000/svg" xmlns:xlink="http://www.w3.org/1999/xlink">
    <!-- Generator: Sketch 59.1 (86144) - https://sketch.com -->
    <title>logo-website</title>
    <desc>Created with Sketch.</desc>
    <g id="Page-1" stroke="none" stroke-width="1" fill="none" fill-rule="evenodd">
        <g id="logo-website" fill="#FFFFFF">
            <path d="M233.057805,722.052443 C201.574452,718.333919 137.016662,740.35311 105.743879,756.444734 C-49.8914903,651.632825 -6.88669577,390.668733 64.602129,379.497228 L188.527448,390.668733 C216.219382,368.635477 254.796107,340.066693 288.385393,270.594585 C316.600392,212.238015 308.386597,97.7115082 294.639225,45.0965307 L294.639225,28.9829278 C312.784388,3.47067401 347.479439,-19.0688823 409.06207,25.00162 C470.644701,69.0721223 450.985618,205.404215 443.401646,264.383804 C522.308396,255.872617 569.741538,251.424252 586.685838,253.880727 C603.630139,256.337202 663.510096,281.541835 705.980852,305.091702 C791.365267,359.036972 747.870548,419.472223 710.504821,431.893975 L710.504821,441.299976 C769.933541,478.1766 761.15677,544.566386 699.665559,567.670266 C699.665559,571.525133 699.665559,574.670967 699.665559,577.107766 C754.912759,616.550679 721.323474,675.322861 683.73797,692.567454 C683.73797,694.61136 683.73797,697.704021 683.73797,701.845437 L754.912759,717.900934 C840.944533,737.013585 834.79207,775.479647 833.31098,784.575532 C825.661313,831.55479 778.462323,838.953475 754.912759,831.495232 L416.52412,756.444734 C269.319655,728.524011 275.806541,727.101535 233.057805,722.052443 Z" id="Path" fill-rule="nonzero"></path>
            <text id="Chimba" font-family="AvenirNext-Bold, Avenir Next" font-size="430" font-weight="bold" letter-spacing="13.4375">
                <tspan x="950" y="606">Chimba</tspan>
            </text>
        </g>
    </g>
</svg>